<?xml version="1.0" encoding="UTF-8"?>
<svg version="1.1" xmlns="http://www.w3.org/2000/svg" width="144" height="144">
<path d="M0 0 C2.17056452 0.00850535 4.33848313 -0.0203312 6.50878906 -0.05200195 C17.09227499 -0.10563028 26.333278 1.41740565 35.36816406 7.25854492 C39.67213323 9.75713233 42.4536782 9.57429387 47.28613281 8.84838867 C52.15188323 8.29214861 56.97496751 8.31238075 61.86816406 8.32104492 C62.80950195 8.31693604 63.75083984 8.31282715 64.72070312 8.30859375 C65.6059668 8.31012451 66.49123047 8.31165527 67.40332031 8.31323242 C68.20261963 8.31436035 69.00191895 8.31548828 69.82543945 8.31665039 C71.80566406 8.44604492 71.80566406 8.44604492 73.80566406 9.44604492 C74.23800112 21.47166645 74.28106537 32.40826173 70.58300781 43.93823242 C69.67618963 48.03030642 70.05155653 51.394788 70.80566406 55.44604492 C70.92820557 56.15744629 71.05074707 56.86884766 71.17700195 57.60180664 C71.43513563 59.09921259 71.6966905 60.59603224 71.96142578 62.09228516 C74.967814 79.48999753 75.75275253 96.95630019 65.80566406 112.44604492 C58.7518098 121.69565149 50.7566809 127.13383052 40.40332031 132.09448242 C36.71933026 134.01126522 33.34180824 136.33183877 29.93457031 138.69995117 C20.70421626 143.85097272 12.35888568 145.1052074 1.86816406 145.00854492 C0.68287109 145.03239258 -0.50242187 145.05624023 -1.72363281 145.08081055 C-14.3745093 145.05999177 -23.72901693 140.08435819 -34.19433594 133.44604492 C-37.37436046 131.47413019 -40.53811711 129.80024854 -43.94433594 128.25854492 C-55.60362961 122.42023591 -62.89061953 112.99688151 -67.36621094 100.88745117 C-69.45206209 94.39247156 -69.76889932 88.41438897 -69.63183594 81.63354492 C-69.62224854 80.49860596 -69.61266113 79.36366699 -69.6027832 78.19433594 C-69.45973455 70.63219012 -68.55769632 63.7756689 -66.80761719 56.41870117 C-65.72846422 51.18790239 -66.51525703 46.86726343 -67.94042969 41.78588867 C-70.83871299 31.03866588 -70.48476488 20.50766437 -70.19433594 9.44604492 C-67.83935336 8.26855363 -66.41603891 8.31693534 -63.79199219 8.31323242 C-62.46445923 8.31105713 -62.46445923 8.31105713 -61.11010742 8.30883789 C-60.16852783 8.31286621 -59.22694824 8.31689453 -58.25683594 8.32104492 C-57.29914307 8.31862793 -56.3414502 8.31621094 -55.35473633 8.3137207 C-50.51569973 8.32606413 -45.91635564 8.53068179 -41.13183594 9.32104492 C-35.69453663 9.95769073 -32.01691324 7.81032304 -27.40917969 5.08666992 C-18.48885568 0.53437821 -9.84442329 -0.05867684 0 0 Z " fill="#FA7521" transform="translate(70.1943359375,-0.446044921875)"/>
<path d="M0 0 C2.17056452 0.00850535 4.33848313 -0.0203312 6.50878906 -0.05200195 C17.09227499 -0.10563028 26.333278 1.41740565 35.36816406 7.25854492 C39.67213323 9.75713233 42.4536782 9.57429387 47.28613281 8.84838867 C52.15188323 8.29214861 56.97496751 8.31238075 61.86816406 8.32104492 C62.80950195 8.31693604 63.75083984 8.31282715 64.72070312 8.30859375 C65.6059668 8.31012451 66.49123047 8.31165527 67.40332031 8.31323242 C68.20261963 8.31436035 69.00191895 8.31548828 69.82543945 8.31665039 C71.80566406 8.44604492 71.80566406 8.44604492 73.80566406 9.44604492 C74.23800112 21.47166645 74.28106537 32.40826173 70.58300781 43.93823242 C69.67618963 48.03030642 70.05155653 51.394788 70.80566406 55.44604492 C70.92820557 56.15744629 71.05074707 56.86884766 71.17700195 57.60180664 C71.43513563 59.09921259 71.6966905 60.59603224 71.96142578 62.09228516 C74.967814 79.48999753 75.75275253 96.95630019 65.80566406 112.44604492 C58.7518098 121.69565149 50.7566809 127.13383052 40.40332031 132.09448242 C36.71933026 134.01126522 33.34180824 136.33183877 29.93457031 138.69995117 C20.70421626 143.85097272 12.35888568 145.1052074 1.86816406 145.00854492 C0.68287109 145.03239258 -0.50242187 145.05624023 -1.72363281 145.08081055 C-14.3745093 145.05999177 -23.72901693 140.08435819 -34.19433594 133.44604492 C-37.37436046 131.47413019 -40.53811711 129.80024854 -43.94433594 128.25854492 C-55.60362961 122.42023591 -62.89061953 112.99688151 -67.36621094 100.88745117 C-69.45206209 94.39247156 -69.76889932 88.41438897 -69.63183594 81.63354492 C-69.62224854 80.49860596 -69.61266113 79.36366699 -69.6027832 78.19433594 C-69.45973455 70.63219012 -68.55769632 63.7756689 -66.80761719 56.41870117 C-65.72846422 51.18790239 -66.51525703 46.86726343 -67.94042969 41.78588867 C-70.83871299 31.03866588 -70.48476488 20.50766437 -70.19433594 9.44604492 C-67.83935336 8.26855363 -66.41603891 8.31693534 -63.79199219 8.31323242 C-62.46445923 8.31105713 -62.46445923 8.31105713 -61.11010742 8.30883789 C-60.16852783 8.31286621 -59.22694824 8.31689453 -58.25683594 8.32104492 C-57.29914307 8.31862793 -56.3414502 8.31621094 -55.35473633 8.3137207 C-50.51569973 8.32606413 -45.91635564 8.53068179 -41.13183594 9.32104492 C-35.69453663 9.95769073 -32.01691324 7.81032304 -27.40917969 5.08666992 C-18.48885568 0.53437821 -9.84442329 -0.05867684 0 0 Z M-31.58105469 18.33276367 C-33.44025831 19.61574922 -35.07081386 20.65122947 -37.19433594 21.44604492 C-39.28027344 21.02026367 -39.28027344 21.02026367 -41.56933594 20.13354492 C-47.96409698 17.98284054 -54.46809724 17.48346489 -61.19433594 17.44604492 C-61.52433594 17.77604492 -61.85433594 18.10604492 -62.19433594 18.44604492 C-62.14173343 27.66463497 -61.3844384 38.06583999 -57.19433594 46.44604492 C-56.96154004 51.32878961 -57.50770277 55.5770954 -58.63183594 60.32104492 C-62.04526826 75.58488382 -63.4442134 90.80922932 -55.25683594 104.82104492 C-54.25104033 106.37256418 -53.23214922 107.91575724 -52.19433594 109.44604492 C-51.61683594 110.35354492 -51.03933594 111.26104492 -50.44433594 112.19604492 C-45.39713168 117.24324918 -38.69024519 120.25158353 -32.31542969 123.31713867 C-29.70512478 124.70641697 -27.28634095 126.3163684 -24.81933594 127.94604492 C-17.73951263 132.51557077 -10.6920477 135.82802952 -2.19433594 136.44604492 C-1.20046875 136.52338867 -1.20046875 136.52338867 -0.18652344 136.60229492 C11.70375624 137.1137048 25.05858657 132.79570913 33.99316406 124.82104492 C37.07683136 122.2170592 39.96887499 120.95262875 43.64550781 119.38745117 C53.10478065 115.26505559 59.2094197 106.88460207 63.11425781 97.55151367 C67.14746812 85.26959077 65.04105875 71.47483243 62.22875977 59.17236328 C60.87963256 53.26925571 59.88115765 48.12672942 62.18066406 42.32104492 C64.88506925 34.73332988 66.34316112 26.50850071 65.80566406 18.44604492 C65.31066406 17.95104492 65.31066406 17.95104492 64.80566406 17.44604492 C57.73363858 17.48639885 51.16247027 18.20838915 44.43066406 20.38354492 C39.42111506 21.73783245 39.42111506 21.73783245 36.84472656 20.51635742 C35.58993202 19.45882316 34.35295517 18.37995542 33.12988281 17.28588867 C15.84757312 3.60527041 -14.27904986 6.12192348 -31.58105469 18.33276367 Z " fill="#000000" transform="translate(70.1943359375,-0.446044921875)"/>
<path d="M0 0 C3.00038806 1.9938681 5.18414296 3.79853808 7.4453125 6.625 C8.41597656 7.83349609 8.41597656 7.83349609 9.40625 9.06640625 C14.48883424 15.66275655 18.96610968 22.0523468 18.4453125 30.6875 C17.34015359 36.41837558 14.75103793 40.7986436 10.171875 44.42578125 C4.4187837 48.13431241 -0.93603087 50.58882651 -7.89453125 49.13671875 C-14.57549983 47.85153977 -21.78328433 48.29321245 -28.4921875 49.25 C-35.51308953 50.1180388 -41.08322554 46.7454837 -46.5546875 42.625 C-50.63857051 38.62158759 -52.68096216 34.93102215 -52.9921875 29.1875 C-52.87821229 20.51272002 -48.42096997 13.161161 -42.4296875 7.125 C-41.14599215 5.94956811 -39.85442875 4.78266427 -38.5546875 3.625 C-37.57822266 2.59632812 -37.57822266 2.59632812 -36.58203125 1.546875 C-26.72756069 -7.79493524 -10.93544871 -6.29881845 0 0 Z " fill="#FA7521" transform="translate(89.5546875,72.375)"/>
<path d="M0 0 C3.00038806 1.9938681 5.18414296 3.79853808 7.4453125 6.625 C8.41597656 7.83349609 8.41597656 7.83349609 9.40625 9.06640625 C14.48883424 15.66275655 18.96610968 22.0523468 18.4453125 30.6875 C17.34015359 36.41837558 14.75103793 40.7986436 10.171875 44.42578125 C4.4187837 48.13431241 -0.93603087 50.58882651 -7.89453125 49.13671875 C-14.57549983 47.85153977 -21.78328433 48.29321245 -28.4921875 49.25 C-35.51308953 50.1180388 -41.08322554 46.7454837 -46.5546875 42.625 C-50.63857051 38.62158759 -52.68096216 34.93102215 -52.9921875 29.1875 C-52.87821229 20.51272002 -48.42096997 13.161161 -42.4296875 7.125 C-41.14599215 5.94956811 -39.85442875 4.78266427 -38.5546875 3.625 C-37.57822266 2.59632812 -37.57822266 2.59632812 -36.58203125 1.546875 C-26.72756069 -7.79493524 -10.93544871 -6.29881845 0 0 Z M-42.96484375 16.4375 C-46.58795055 21.63191836 -47.29528815 26.44627462 -46.5546875 32.625 C-44.49764964 36.98592026 -41.94007531 39.69329706 -37.62109375 41.94140625 C-32.31963161 43.69519807 -26.85669761 42.95315884 -21.5546875 41.625 C-20.22363489 41.53660979 -18.88866154 41.49478916 -17.5546875 41.5 C-16.5646875 41.49613281 -16.5646875 41.49613281 -15.5546875 41.4921875 C-13.5546875 41.625 -13.5546875 41.625 -11.640625 42.11328125 C-6.00071952 43.49685357 -0.29269125 43.50980191 4.8828125 40.875 C5.7284375 40.1325 6.5740625 39.39 7.4453125 38.625 C8.2084375 38.068125 8.9715625 37.51125 9.7578125 36.9375 C12.37713047 33.34806426 12.70030329 30.00942504 12.4453125 25.625 C10.69362124 17.12325706 3.98997117 10.84372782 -2.5546875 5.625 C-18.3308975 -3.0540532 -32.44719367 2.91896916 -42.96484375 16.4375 Z " fill="#000000" transform="translate(89.5546875,72.375)"/>
<path d="M0 0 C3.03388036 1.76160795 4.81043916 3.28891888 6.9375 6.125 C7.77729792 10.4173005 7.32644582 14.02680005 5.875 18.125 C3.9375 20.125 3.9375 20.125 0.5625 21.25 C-3.0625 21.125 -3.0625 21.125 -5.9375 18.8125 C-8.60156125 15.44324607 -9.27561342 14.01737144 -9 9.8125 C-8.56640861 6.28101222 -7.91835524 4.39208614 -5.25 2 C-2.0625 0.125 -2.0625 0.125 0 0 Z " fill="#000000" transform="translate(37.0625,48.875)"/>
<path d="M0 0 C3.71625848 0.08078823 5.51551617 0.59201361 8.375 3 C10.59854776 7.10501125 10.92207276 10.42972632 10 15 C8.63804209 17.83982714 7.5030254 18.87786977 5 21 C1.9375 21.6875 1.9375 21.6875 -1 21 C-3.94996688 17.97030429 -5.83269572 15.47227763 -6.3125 11.25 C-5.84448782 6.38267335 -3.39156673 3.39156673 0 0 Z " fill="#000000" transform="translate(106,49)"/>
<path d="M0 0 C1.89453125 0.77734375 1.89453125 0.77734375 3.89453125 2.77734375 C4.92138521 6.88475961 5.15632666 9.11662199 3.58203125 13.08984375 C1.89453125 15.77734375 1.89453125 15.77734375 -0.10546875 17.77734375 C-3.64632901 18.23919509 -5.477682 18.16367406 -8.54296875 16.27734375 C-10.39369641 13.3161795 -10.53576274 11.25035619 -9.91796875 7.8203125 C-8.32972277 3.82679016 -4.57382128 -0.48368796 0 0 Z " fill="#000000" transform="translate(62.10546875,87.22265625)"/>
<path d="M0 0 C3.5083492 1.80733141 6.29495718 4.52741437 8.0625 8.0625 C8.5149237 14.28332585 8.5149237 14.28332585 6.9375 17 C4.039744 18.64206173 2.33663391 18.6518441 -0.9375 18.0625 C-3.89110541 15.49414747 -5.54500445 13.84408851 -6.38671875 10.0234375 C-6.57686826 6.52206375 -6.164828 4.39537314 -4.1875 1.5 C-1.9375 0.0625 -1.9375 0.0625 0 0 Z " fill="#000000" transform="translate(83.9375,86.9375)"/>
<path d="M0 0 C-2.64 3.63 -5.28 7.26 -8 11 C-7.01 11.66 -6.02 12.32 -5 13 C-5.99 13.99 -6.98 14.98 -8 16 C-9.1998278 14.57277341 -10.3845576 13.13284224 -11.5625 11.6875 C-12.22378906 10.88699219 -12.88507813 10.08648437 -13.56640625 9.26171875 C-14.03949219 8.51535156 -14.51257813 7.76898438 -15 7 C-14 4 -14 4 -11.85546875 2.578125 C-10.97503906 2.13984375 -10.09460938 1.7015625 -9.1875 1.25 C-8.31480469 0.80140625 -7.44210938 0.3528125 -6.54296875 -0.109375 C-4 -1 -4 -1 0 0 Z " fill="#000000" transform="translate(131,23)"/>
<path d="M0 0 C5.70629354 0.42797202 9.41078616 2.84345952 14 6 C12.67855892 8.79108116 11.19617639 11.25786389 9.375 13.75 C8.92898437 14.36359375 8.48296875 14.9771875 8.0234375 15.609375 C7.68570312 16.06828125 7.34796875 16.5271875 7 17 C6.34 16.67 5.68 16.34 5 16 C5 15.01 5 14.02 5 13 C5.99 13 6.98 13 8 13 C7.50628906 12.31292969 7.01257813 11.62585937 6.50390625 10.91796875 C5.54291016 9.56638672 5.54291016 9.56638672 4.5625 8.1875 C3.92441406 7.29417969 3.28632813 6.40085937 2.62890625 5.48046875 C1 3 1 3 0 0 Z " fill="#000000" transform="translate(14,22)"/>
</svg>
